# xmcd
#
# Track frame offsets:
#	150
#	25472
#	46637
#	66355
#	87172
#	104782
#	126637
#	147027
#	166130
#	185200
#	206585
#	229935
#	248452
#	269462
#
# Disc length: 3888 seconds
#
# Revision: 1
# Processed by: cddbd v1.5.1PL0 Copyright (c) Steve Scherf et al.
# Submitted via: CDex 1.50Beta5
#
DISCID=ce0f2e0e
DTITLE=吉幾三 - 吉幾三/全曲集〜どんなに遠くても
DYEAR=1993
DGENRE=World
TTITLE0=どんなに遠くても
TTITLE1=夜汽車
TTITLE2=女のかぞえ唄
TTITLE3=お・ん・な
TTITLE4=何故
TTITLE5=酔歌
TTITLE6=雪國
TTITLE7=門出
TTITLE8=酔待酒
TTITLE9=港と女
TTITLE10=夜更けのメロディー
TTITLE11=酒よ
TTITLE12=途中下車
TTITLE13=海峡
EXTD=
EXTT0=
EXTT1=
EXTT2=
EXTT3=
EXTT4=
EXTT5=
EXTT6=
EXTT7=
EXTT8=
EXTT9=
EXTT10=
EXTT11=
EXTT12=
EXTT13=
PLAYORDER=
